# xmcd
#
# Track frame offsets: 
#        150
#        23712
#        44477
#        62365
#        86317
#        108575
#        129492
#        148887
#        165520
#        180632
#        199962
#        214707
#        233750
#
# Disc length: 3389 seconds
#
# Revision: 6
# Processed by: cddbd v1.5.2PL0 Copyright (c) Steve Scherf et al.
# Submitted via: ExactAudioCopy v1.0b3
#
DISCID=b00d3b0d
DTITLE=ASIAN KUNG-FU GENERATION - マジックディスク
DYEAR=2010
DGENRE=J-Rock
TTITLE0=新世紀のラブソング
TTITLE1=マジックディスク
TTITLE2=双子葉
TTITLE3=さよならロストジェネレイション
TTITLE4=迷子犬と雨のビート
TTITLE5=青空と黒い猫
TTITLE6=架空生物のブルース
TTITLE7=ラストダンスは悲しみを乗せて
TTITLE8=マイクロフォン
TTITLE9=ライジングサン
TTITLE10=イエス
TTITLE11=橙
TTITLE12=ソラニン (extra track)
EXTD=YEAR: 2010
EXTT0=
EXTT1=
EXTT2=
EXTT3=
EXTT4=
EXTT5=
EXTT6=
EXTT7=
EXTT8=
EXTT9=
EXTT10=
EXTT11=
EXTT12=
PLAYORDER=
